<svg viewBox="0 0 32 32" xmlns="http://www.w3.org/2000/svg"><path d="M8.00684834 10C6.34621185 10 5 11.3422643 5 12.9987856v7.0024288C5 21.6573979 6.33599155 23 8.00684834 23H24.9931517C26.6537881 23 28 21.6577357 28 20.0012144v-7.0024288C28 11.3426021 26.6640085 10 24.9931517 10H8.00684834zm-.01228689 1C6.89299558 11 6 11.9001762 6 12.992017v7.015966C6 21.1081436 6.90234375 22 7.99456145 22H25.0054385C26.1070044 22 27 21.0998238 27 20.007983v-7.015966C27 11.8918564 26.0976562 11 25.0054385 11H7.99456145zM8 17v.9940809C8 19.1019194 8.8938998 20 10.0048815 20h.990237C12.102384 20 13 19.1134452 13 17.9940809V13h-1v5.009222C12 18.5490248 11.5527519 19 11.0010434 19H9.99895656C9.44266033 19 9 18.5522847 9 18v-1H8zm6-2v5h1v-3h1.9951185C18.102384 17 19 16.1122704 19 15c0-1.1045695-.8938998-2-2.0048815-2H14v2zm1-1v2h2.0010434C17.5527519 16 18 15.5561352 18 15c0-.5522847-.4426603-1-.9989566-1H15zm9 3v2h-2.0001925C21.4437166 19 21 18.5523709 21 18.0001925v-3.000385C21 14.4437166 21.4476291 14 21.9998075 14H25v-1h-2.9951185C20.897616 13 20 13.8865548 20 15.0059191v2.9881618C20 19.1019194 20.8938998 20 22.0048815 20H25v-4h-3v1h2z" fill="#000" fill-rule="evenodd"/></svg>
