<svg viewBox="0 0 32 32" xmlns="http://www.w3.org/2000/svg"><path d="M8.00684834 10C6.34621185 10 5 11.3422643 5 12.9987856v7.0024288C5 21.6573979 6.33599155 23 8.00684834 23H24.9931517C26.6537881 23 28 21.6577357 28 20.0012144v-7.0024288C28 11.3426021 26.6640085 10 24.9931517 10H8.00684834zm-.01228689 1C6.89299558 11 6 11.9001762 6 12.992017v7.015966C6 21.1081436 6.90234375 22 7.99456145 22H25.0054385C26.1070044 22 27 21.0998238 27 20.007983v-7.015966C27 11.8918564 26.0976562 11 25.0054385 11H7.99456145zM13 17v2h-2.0001925C10.4437166 19 10 18.5523709 10 18.0001925v-3.000385C10 14.4437166 10.4476291 14 10.9998075 14H14v-1h-2.9951185C9.89761602 13 9 13.8865548 9 15.0059191v2.9881618C9 19.1019194 9.8938998 20 11.0048815 20H14v-4h-3v1h2zm3-3v5h-1v1h3v-1h-1v-5h1v-1h-3v1h1zm4 2v-2h4v-1h-5v7h1v-3h3v-1h-3z" fill="#000" fill-rule="evenodd"/></svg>
