<svg viewBox="0 0 32 32" xmlns="http://www.w3.org/2000/svg"><path d="M8.00684834 10C6.34621185 10 5 11.3422643 5 12.9987856v7.0024288C5 21.6573979 6.33599155 23 8.00684834 23H24.9931517C26.6537881 23 28 21.6577357 28 20.0012144v-7.0024288C28 11.3426021 26.6640085 10 24.9931517 10H8.00684834zm-.01228689 1C6.89299558 11 6 11.9001762 6 12.992017v7.015966C6 21.1081436 6.90234375 22 7.99456145 22H25.0054385C26.1070044 22 27 21.0998238 27 20.007983v-7.015966C27 11.8918564 26.0976562 11 25.0054385 11H7.99456145zm8.01032005 2C14.897616 13 14 13.8865548 14 15.0059191v2.9881618C14 19.1019194 14.8938998 20 16.0048815 20h.990237C18.102384 20 19 19.1134452 19 17.9940809v-2.9881618C19 13.8980806 18.1061002 13 16.9951185 13h-.990237zm-.0059249 1C15.4472481 14 15 14.4437166 15 14.9998075v3.000385C15 18.5523709 15.4426603 19 15.9989566 19h1.0020868C17.5527519 19 18 18.5562834 18 18.0001925v-3.000385C18 14.4476291 17.5573397 14 17.0010434 14h-1.0020868zM10.5 16L9 13H8v7h1v-5l1 2h1l1-2v5h1v-7h-1l-1.5 3zm12 2.25L24 13h1l-2 7h-1l-2-7h1l1.5 5.25z" fill="#000" fill-rule="evenodd"/></svg>
